<svg width="24" height="24" viewBox="0 0 24 24" fill="none" xmlns="http://www.w3.org/2000/svg">
<path d="M23.8454 7.9956C23.7281 7.88036 23.5642 7.82572 23.4012 7.84755H17.0343V5.03426C17.0343 2.2539 14.7804 0 12.0001 0C9.21971 0 6.96582 2.2539 6.96582 5.03426V7.84755H0.598861C0.421164 7.84755 0.243523 7.84755 0.154646 7.9956C0.0352739 8.11032 -0.0201042 8.2764 0.00659291 8.43981L2.22761 20.5813C2.53789 22.275 4.00034 23.5144 5.72199 23.5426H18.278C20.0046 23.5002 21.464 22.251 21.7724 20.5517L23.9934 8.43981C24.0201 8.2764 23.9648 8.11032 23.8454 7.9956ZM8.1503 5.03426C8.1503 2.90812 9.87388 1.18454 12 1.18454C14.1261 1.18454 15.8497 2.90812 15.8497 5.03426V7.84755H8.1503V5.03426ZM20.5879 20.4036C20.3884 21.526 19.4179 22.3472 18.278 22.3581H5.72199C4.58212 22.3472 3.61161 21.526 3.41215 20.4036L1.30959 9.03208H22.6904L20.5879 20.4036Z" fill="black"/>
<path d="M16.4419 14.8066C16.769 14.8066 17.0341 14.5414 17.0341 14.2143V12.4375C17.0341 12.1104 16.769 11.8452 16.4419 11.8452C16.1148 11.8452 15.8496 12.1104 15.8496 12.4375V14.2143C15.8496 14.5414 16.1148 14.8066 16.4419 14.8066Z" fill="black"/>
<path d="M7.55809 14.8066C7.8852 14.8066 8.15036 14.5414 8.15036 14.2143V12.4375C8.15036 12.1104 7.8852 11.8452 7.55809 11.8452C7.23098 11.8452 6.96582 12.1104 6.96582 12.4375V14.2143C6.96582 14.5414 7.23098 14.8066 7.55809 14.8066Z" fill="black"/>
</svg>
