<svg width="15" height="15" viewBox="0 0 15 15" fill="none" xmlns="http://www.w3.org/2000/svg">
<path d="M13.746 1.88665L11.8528 0L7.92112 3.92519L9.44533 5.49933C9.18988 5.95278 8.63565 6.82142 7.69108 7.76599C6.74639 8.7107 5.8714 9.27123 5.41361 9.53076L3.87035 8.00715L0 11.8545L1.88284 13.7498C2.6026 14.4696 3.69772 14.6561 4.60794 14.214C5.99695 13.5394 8.09321 12.2946 10.192 10.1958C12.2909 8.09705 13.5356 6.00076 14.2102 4.61175C14.3701 4.28261 14.4477 3.9294 14.4477 3.57844C14.4477 2.95872 14.2055 2.34617 13.746 1.88665ZM13.1955 4.11885C12.5587 5.42998 11.3823 7.41018 9.39435 9.3981C7.40642 11.3861 5.42623 12.5624 4.11509 13.1992C3.63709 13.4314 3.06061 13.3321 2.68194 12.9534L1.5952 11.8595L3.87317 9.59512L5.18789 10.8931L5.53964 10.7364C5.59679 10.711 6.95721 10.0954 8.4889 8.56367C10.0216 7.03099 10.6244 5.68206 10.6493 5.62539L10.8018 5.27835L9.50451 3.93857L11.8536 1.59331L12.9489 2.68479C13.3284 3.06482 13.4276 3.64104 13.1955 4.11885Z" fill="white"/>
<path d="M3.83889 3.84278C3.20672 4.47494 3.20669 5.5036 3.83886 6.13579L4.63657 5.33811C4.5434 5.24494 4.49208 5.12106 4.49208 4.9893C4.49208 4.85757 4.54343 4.73369 4.6366 4.64052C4.72977 4.54734 4.85365 4.49603 4.98538 4.49603C5.11714 4.49603 5.24105 4.54734 5.3342 4.64052L6.13188 3.8428C5.49971 3.21061 4.47106 3.21061 3.83889 3.84278Z" fill="white"/>
<path d="M2.24991 2.26794C0.748082 3.76974 0.748082 6.21331 2.24988 7.71511L3.04757 6.91743C1.98566 5.85552 1.98563 4.12764 3.04759 3.06568C4.10953 2.00375 5.83741 2.00375 6.89934 3.06565L7.69703 2.26797C6.19526 0.766138 3.75168 0.766166 2.24991 2.26794Z" fill="white"/>
</svg>
