<svg width="61" height="63" viewBox="0 0 61 63" fill="none" xmlns="http://www.w3.org/2000/svg">
<path d="M56.6613 41.3489L50.7658 37.1564C51.7559 33.5157 51.7503 29.676 50.7495 26.0382L56.6645 21.8977L51.9423 13.7272L45.3643 16.7367C42.7055 14.0587 39.3764 12.1439 35.7248 11.1922L35.0975 3.99992H25.653L25.0258 11.1922C21.3749 12.1452 18.0469 14.0612 15.3895 16.7399L8.80828 13.7304L4.08928 21.9009L10.0043 26.0414C9.00303 29.6779 8.99629 33.5165 9.98478 37.1564L4.08928 41.3489L8.80828 49.4804L15.3895 46.4677C18.0473 49.1452 21.3752 51.0601 25.0258 52.0122L25.653 59.2044H35.0975L35.7248 52.0122C39.3753 51.0599 42.7032 49.1451 45.361 46.4677L51.9423 49.4804L56.6645 41.3522L56.6613 41.3489ZM36.8915 0.701173C37.3099 0.70073 37.7123 0.861636 38.0149 1.1504C38.3176 1.43916 38.4973 1.83353 38.5165 2.25142L39.095 8.86517C41.4975 9.78072 43.7388 11.0731 45.7348 12.6937L51.7473 9.88892C52.1186 9.69785 52.5493 9.65709 52.9499 9.77509C53.3505 9.8931 53.6903 10.1608 53.8988 10.5227L60.415 21.8002C60.6244 22.1617 60.6865 22.5899 60.5885 22.996C60.4904 23.4021 60.2398 23.7548 59.8885 23.9809L54.448 27.7899C54.864 30.3834 54.851 32.9672 54.4513 35.4567L59.8885 39.2592C60.2406 39.4854 60.4919 39.8387 60.59 40.2455C60.6881 40.6524 60.6254 41.0814 60.415 41.4432L53.8988 52.6784C53.6903 53.0403 53.3505 53.308 52.9499 53.426C52.5493 53.544 52.1186 53.5032 51.7473 53.3122L45.7348 50.5074C43.7783 52.0999 41.5488 53.3999 39.095 54.3392L38.5165 60.9529C38.4965 61.3702 38.3165 61.7638 38.0139 62.0519C37.7113 62.3399 37.3093 62.5004 36.8915 62.4999H23.859C23.4412 62.5004 23.0393 62.3399 22.7367 62.0519C22.4341 61.7638 22.2541 61.3702 22.234 60.9529L21.6555 54.3392C19.2529 53.4225 17.0116 52.129 15.0158 50.5074L9.00328 53.3122C8.63199 53.5045 8.20084 53.5463 7.79952 53.4289C7.3982 53.3114 7.05759 53.0438 6.84853 52.6817L0.335533 41.4399C0.126162 41.0784 0.0640485 40.6502 0.162088 40.2441C0.260128 39.838 0.510789 39.4853 0.862033 39.2592L6.29928 35.4534C5.89211 32.9141 5.89211 30.326 6.29928 27.7867L0.865283 23.9809C0.5149 23.7548 0.264838 23.4027 0.166837 22.9974C0.0688358 22.5921 0.130397 22.1646 0.338783 21.8034L6.84528 10.5227C7.0538 10.16 7.39418 9.89166 7.79555 9.77361C8.19692 9.65557 8.62835 9.69687 9.00003 9.88892L15.0125 12.6937C17.0085 11.0731 19.2498 9.78072 21.6523 8.86517L22.2308 2.25142C22.25 1.83353 22.4297 1.43916 22.7324 1.1504C23.0351 0.861636 23.4375 0.70073 23.8558 0.701173H36.8883H36.8915ZM30.3753 20.2499C33.3921 20.2499 36.2854 21.4484 38.4186 23.5816C40.5518 25.7148 41.7503 28.6081 41.7503 31.6249C41.7503 34.6418 40.5518 37.535 38.4186 39.6683C36.2854 41.8015 33.3921 42.9999 30.3753 42.9999C27.3584 42.9999 24.4652 41.8015 22.3319 39.6683C20.1987 37.535 19.0003 34.6418 19.0003 31.6249C19.0003 28.6081 20.1987 25.7148 22.3319 23.5816C24.4652 21.4484 27.3584 20.2499 30.3753 20.2499ZM30.3753 23.4999C28.2204 23.4999 26.1538 24.3559 24.63 25.8797C23.1063 27.4034 22.2503 29.47 22.2503 31.6249C22.2503 33.7798 23.1063 35.8464 24.63 37.3702C26.1538 38.8939 28.2204 39.7499 30.3753 39.7499C32.5302 39.7499 34.5968 38.8939 36.1205 37.3702C37.6443 35.8464 38.5003 33.7798 38.5003 31.6249C38.5003 29.47 37.6443 27.4034 36.1205 25.8797C34.5968 24.3559 32.5302 23.4999 30.3753 23.4999Z" fill="black"/>
</svg>
